<?xml version="1.0" encoding="utf-8"?>
<!-- Generator: Adobe Illustrator 15.1.0, SVG Export Plug-In . SVG Version: 6.00 Build 0)  -->
<!DOCTYPE svg PUBLIC "-//W3C//DTD SVG 1.1//EN" "http://www.w3.org/Graphics/SVG/1.1/DTD/svg11.dtd">
<svg version="1.1" id="Layer_1" xmlns="http://www.w3.org/2000/svg" xmlns:xlink="http://www.w3.org/1999/xlink" x="0px" y="0px"
	 width="438.44px" height="440.44px" viewBox="0 0 438.44 440.44" enable-background="new 0 0 438.44 440.44" xml:space="preserve">
<g id="XMLID_1_">
	<g>
		<path fill="#FAE301" d="M438.19,192.22c-1.19,4.48-6.5,4.84-5,12c-7.66,9-20.101,13.23-29.99,20
			c6.67,11.32,21.85,14.141,26.99,26.99c-9.87,14.8-30.101,19.23-52.99,21c8.72,14.95,31.729,24.26,33,50
			c-28.34,18.14-64.04-4.79-85.99-15c2.73,22.271,17.36,41.29,18.99,67.99c-33.95-2.37-42.78-29.88-64.99-44
			c4.32,10.2,11.41,26.26,10,47c-0.79,11.569-7.28,43.109-14,43.99c-4.15,0.55-14.93-17.16-18-20.99
			c-6.9-8.641-11.95-13.44-16.99-21c-4.81,16.859-8.68,34.649-17,47.99c-7.76,1.239-9.93,8.069-15,12
			c-8.91-21.41-13.42-47.24-20-70.99c-5.18,9.26-12.32,18.819-18.99,28c-6.25,8.58-11.15,20.55-22,21.99
			c2.05-19.391,4.7-41.99,3-61.99c-10.52,9.149-22.62,25.37-37,34c-3.54,0.54-2.46-3.54-6-3c-2.16-21.96-5.51-45.66,4-61.99
			c-17.62,11.37-33.94,24.05-58.99,27.99c-0.57-7.04,5.84-15.38,8-23c-0.35-3.311-5.76-1.57-9-2c3.7-25.63,20.74-37.92,31-56.99
			c-24.29-3.71-54.67-1.32-70.99-13c3.79-5.53,11.53-7.13,16.99-11c-7.76-8.229-18.7-13.29-26.99-20.99
			c9.26-6.319,19.59-7.2,28.99-12c13.79-7.04,26.64-13.57,48-14c-27.98-7.35-48.65-22.01-58-47.99c4.23-4.11,14.35-2.32,20-5
			c-4.93-9.79-14.28-20.31-16-30c7,0,12.31-1.69,20-1c-1.21-3.79-1.93-8.06-4-11c17.83-2.82,35.45,3.21,51.99,5
			c-8.27-19.05-19.88-34.77-26.99-54.99c24.72,0.28,41.43,8.56,55.99,19c-0.3-20.69,4.41-43.98,11-61c8.62,5.38,14.72,13.28,23,19
			c2.74-9.92,5-20.33,5-32.99c22.91,14.41,44.17,30.48,50.99,60.99c6.41-31.25,29.82-45.5,51.99-60.99c7.65,14.2,9.75,33.98,8,54.99
			c15.43-12.23,26.75-28.58,51-32c3.01,11.13-1.78,22.81-1,35c13.71-5.65,24.24-19.7,37.99-22c0.63,35.96-13.66,57-29.99,75.99
			c27.03-3.96,52.23-9.76,73.99-19c-7.15,33.85-21.891,60.11-55,68C383.41,159.51,418.31,171.48,438.19,192.22z"/>
	</g>
	<g>
	</g>
</g>
<path fill="#76A837" d="M279.21,160.23c5.41,14.66,18.65-3.82,28,0c-2.08,6.25-10.27,6.4-15,9.99c8.08,2.74,19.04-0.28,27-1
	c-7.47,6.2-17.81,9.53-21,20c9.49,3.47,21.47-4.51,31-1c-4.14,9.38-24.21-1.72-29,8c0.37,4.63,3.12,6.87,6,9
	c-0.85,3.16-5.16,2.84-6,6c4.19,5.14,15.73,2.93,19,9c-8.18,0.15-16.31,0.36-21,4c-1.81,12.471,6.46,14.87,11,20.99
	c-1.84,2.42-5.9-1.37-10,0c5.14,10.25,19.64,16.29,21,27c-11.46,0.58-14.53-15.32-25-19c-2.49-0.15-3.1,1.58-5,2
	c-0.32,6.99,4.32,9.021,4,16c-4.78-0.89-7.38-3.95-11-6c-15.71,12.31,16.69,25.13,11,37c-8.62-4.72-10.59-16.08-18-22
	c-2.8,5.49,1.91,12.07,2,18c-5.41-3.26-7.76-9.57-14-12c-2.97,7.32,1.19,16.13,1,24c-6.94-3.84-10.96-18.88-19.99-17
	c-10.489,2.18-3.47,21.06-5,31c-5.58-4.76-7.1-13.58-8-23c-3.77,1.9-3.739,7.59-5,12c-6.3-4.85-4.989-14.66-13-16
	c-9.52-1.6-14.05,9.22-19,17c-0.4-15.8-13.38-26.7-23-12c-2.39-4.28-0.19-18.2-6.99-21c-7.95,1.72-11.12,8.21-16,13
	c-0.32-4.68,6.94-14.57,3-23c-1.71,0.05-2.59-0.74-3-2c-5.58,1.61-10.34,8.75-16,7c1.09-5.24,4.45-8.21,6-13
	c-12.7-1.64-20.96,14.98-33,14c5.92-11.41,22.76-11.91,31-21c-2.38-2.62-7.51-2.49-11-4c0.13-4.2,3.87-4.79,4-9
	c-3.87-3.46-14.91,0.25-18-3.99c1.76-3.91,9.46-1.88,13-4c-1.73-3.609-7.22-3.45-8-8c4.67-0.33,7.86-2.149,10-5
	c-2.54-13.13-16.25-15.08-28-19c10.41-3.59,27.12-0.88,30-12c-3.39-9.28-17.38-7.95-23-15c7.83-1.67,16.46,4.09,24,6
	c-0.89-5.11-6.74-5.26-7-11c11.85,7.42,24.24-3.18,22-14.99c19.67-0.15,1.43-17.35-3-25c8.39,1.42,10.44,11.88,18,13
	c11.45,1.69,19.32-11.2,21.99-23c5.5,4.37,14.98,11.87,23,5c-0.4-7.37-3.68-15.71-1-23c5.9,3.77,3.09,16.24,8,21
	c4.11-0.23,6.18-2.48,8-5c4.16,19.41,22.79,2.25,29.99,0c-1.33,3-1.01,7.65-1,12c10.62,11.15,17.96-7.21,26-11
	c2.95,9.73-15.6,26.78-1,33c8.45-3.55,14.88-9.12,22-14C293.87,145.56,283.91,152.92,279.21,160.23z"/>
</svg>
